<svg xmlns="http://www.w3.org/2000/svg" data-name="Layer 1" viewBox="0 0 512 512" id="top-arrow"><polygon fill="#ed664c" points="439.14 329.89 403.79 365.25 256 217.46 108.21 365.25 72.86 329.89 256 146.75 439.14 329.89" data-name="<Group>"></polygon><g data-name="<Group>"><path d="M263.071,139.679a10,10,0,0,0-14.142,0L65.789,322.819a10,10,0,0,0,0,14.141l35.35,35.36a10,10,0,0,0,7.071,2.93h0a10,10,0,0,0,7.071-2.929L256,231.6,396.719,372.321a10,10,0,0,0,14.143,0l35.35-35.36a10,10,0,0,0,0-14.141ZM403.789,351.107,263.071,210.389a10,10,0,0,0-14.142,0L108.211,351.107,87,329.891l169-169,169,169Z" data-name="<Compound Path>"></path></g></svg>