<?xml version="1.0" encoding="utf-8"?>
<svg width="135px" height="30px" fill="none" xmlns="http://www.w3.org/2000/svg">
  <path d="M 2.406 27 L 2.406 2.391 L 5.465 2.391 L 5.465 13.113 L 8.629 13.113 L 8.629 16.102 L 5.465 16.102 L 5.465 27 L 2.406 27 Z M 10.387 16.102 L 10.387 13.113 L 13.516 13.113 L 13.516 2.391 L 16.609 2.391 L 16.609 27 L 13.516 27 L 13.516 16.102 L 10.387 16.102 Z M 19.352 21.797 L 19.352 13.113 C 19.352 12.012 19.844 10.934 20.828 9.879 C 22.047 8.613 23.57 7.981 25.398 7.981 L 25.398 10.828 C 24.016 10.828 23.055 11.402 22.516 12.551 C 22.352 12.902 22.27 13.254 22.27 13.606 L 22.27 21.34 C 22.27 22.207 22.668 22.945 23.465 23.555 C 24.027 23.977 24.672 24.188 25.398 24.188 L 25.398 27.035 C 23.172 27.035 21.449 26.133 20.231 24.328 C 19.645 23.438 19.352 22.594 19.352 21.797 Z M 26.91 27.035 L 26.91 24.188 C 28.152 24.188 29.043 23.625 29.582 22.5 C 29.77 22.125 29.863 21.762 29.863 21.41 L 29.863 13.606 C 29.863 12.645 29.453 11.883 28.633 11.32 C 28.117 10.992 27.531 10.828 26.875 10.828 L 26.875 7.981 C 29.031 7.981 30.695 8.859 31.867 10.617 C 32.453 11.484 32.746 12.316 32.746 13.113 L 32.746 21.797 C 32.746 22.945 32.254 24.059 31.27 25.137 C 30.121 26.379 28.668 27.012 26.91 27.035 Z M 35.418 21.938 L 35.418 8.016 L 38.406 8.016 L 38.406 21.586 C 38.406 22.43 38.828 23.133 39.672 23.695 C 40.234 24.047 40.856 24.223 41.535 24.223 L 41.535 27.176 C 39.285 27.176 37.551 26.297 36.332 24.539 C 35.723 23.648 35.418 22.781 35.418 21.938 Z M 43.082 27.176 L 43.082 24.223 C 44.348 24.223 45.273 23.719 45.859 22.711 C 46.07 22.336 46.176 21.961 46.176 21.586 L 46.176 8.016 L 49.164 8.016 L 49.164 21.938 C 49.164 23.039 48.66 24.129 47.652 25.207 C 46.434 26.496 44.91 27.152 43.082 27.176 Z M 51.203 22.008 L 53.981 21.481 C 53.981 22.535 54.531 23.367 55.633 23.977 C 56.172 24.234 56.688 24.375 57.18 24.398 L 57.18 27.176 C 54.906 27.176 53.207 26.356 52.082 24.715 C 51.496 23.848 51.203 22.945 51.203 22.008 Z M 51.379 13.359 C 51.379 11.227 52.352 9.645 54.297 8.613 C 55.234 8.121 56.172 7.875 57.109 7.875 L 57.109 10.617 C 56.031 10.617 55.199 11.063 54.613 11.953 C 54.309 12.398 54.156 12.867 54.156 13.359 C 54.156 14.109 54.742 14.719 55.914 15.188 C 56.805 15.563 58.527 16.055 61.082 16.664 C 62.676 16.992 63.813 17.777 64.492 19.02 C 64.844 19.676 65.019 20.414 65.019 21.234 C 65.019 23.484 64.117 25.148 62.313 26.227 C 61.258 26.859 60.051 27.176 58.691 27.176 L 58.691 24.398 C 59.77 24.398 60.672 24.023 61.398 23.273 C 61.914 22.734 62.172 22.102 62.172 21.375 C 62.172 20.438 61.246 19.688 59.395 19.125 C 58.926 18.984 58.176 18.785 57.145 18.527 C 56.043 18.27 55.246 18.059 54.754 17.895 C 52.973 17.191 51.895 16.125 51.52 14.695 C 51.426 14.273 51.379 13.828 51.379 13.359 Z M 58.656 10.652 L 58.656 7.875 C 60.672 7.875 62.301 8.625 63.543 10.125 C 64.316 11.086 64.703 12.094 64.703 13.148 L 61.926 13.606 C 61.926 12.316 61.223 11.414 59.816 10.898 C 59.395 10.734 59.008 10.652 58.656 10.652 Z M 67.094 21.797 L 67.094 13.078 C 67.117 12 67.633 10.934 68.641 9.879 C 69.859 8.637 71.336 8.004 73.07 7.981 L 73.07 10.758 C 71.945 10.758 71.066 11.25 70.434 12.234 C 70.176 12.656 70.047 13.043 70.047 13.395 L 70.047 15.785 L 77.922 15.785 L 77.922 13.395 C 77.922 12.34 77.383 11.566 76.305 11.074 C 75.813 10.84 75.309 10.723 74.793 10.723 L 74.793 7.981 C 76.41 7.981 77.852 8.555 79.117 9.703 C 80.172 10.711 80.711 11.824 80.734 13.043 L 80.734 18.633 L 70.047 18.633 L 70.047 21.797 C 70.047 22.453 70.422 23.063 71.172 23.625 C 71.781 24.047 72.426 24.258 73.106 24.258 L 73.106 27 C 70.973 27 69.297 26.133 68.078 24.398 C 67.422 23.484 67.094 22.617 67.094 21.797 Z M 74.793 27 L 74.793 24.223 C 76.199 24.223 77.254 23.613 77.957 22.395 C 78.098 22.137 78.203 21.891 78.273 21.656 L 80.77 22.57 C 80.348 24.188 79.387 25.406 77.887 26.227 C 76.926 26.742 75.895 27 74.793 27 Z M 82.492 2.391 L 85.586 2.391 L 91.844 23.766 L 90.719 27 L 89.629 27 L 82.492 2.391 Z M 91.07 15.434 L 95.43 2.391 L 98.523 2.391 C 98.313 3.07 97.434 5.789 95.887 10.547 C 94.082 16.078 93.051 19.254 92.793 20.074 L 92.441 20.074 L 91.07 15.434 Z M 100.211 20.145 L 100.211 8.578 C 100.211 7.336 100.738 6.07 101.793 4.781 C 103.199 3.094 104.98 2.238 107.137 2.215 L 107.137 5.273 C 105.707 5.273 104.594 6 103.797 7.453 C 103.469 8.086 103.305 8.648 103.305 9.141 L 103.305 20.145 C 103.305 21.621 104.031 22.77 105.484 23.59 C 106.094 23.941 106.633 24.117 107.102 24.117 L 107.102 27.176 C 105.766 27.176 104.43 26.695 103.094 25.734 C 101.195 24.328 100.234 22.465 100.211 20.145 Z M 109.035 27.176 L 109.035 24.117 C 109.855 24.117 110.688 23.754 111.531 23.027 C 112.422 22.231 112.879 21.27 112.902 20.145 L 112.902 9.141 C 112.902 8.227 112.527 7.348 111.777 6.504 C 111.004 5.707 110.09 5.297 109.035 5.273 L 109.035 2.215 C 111.402 2.215 113.301 3.234 114.73 5.273 C 115.551 6.445 115.961 7.547 115.961 8.578 L 115.961 20.145 C 115.961 22.746 114.801 24.738 112.48 26.121 C 111.262 26.824 110.113 27.176 109.035 27.176 Z M 118.809 27 L 121.867 27 L 121.867 2.391 L 118.809 2.391 L 118.809 27 Z M 123.625 15.996 L 127.422 15.996 C 130.492 15.973 132.414 14.801 133.188 12.481 C 133.492 11.543 133.645 10.43 133.645 9.141 C 133.645 4.852 131.711 2.602 127.844 2.391 C 127.703 2.391 127.562 2.391 127.422 2.391 L 123.625 2.391 L 123.625 5.344 L 126.93 5.344 C 129.297 5.391 130.492 6.656 130.516 9.141 C 130.469 11.695 129.285 12.984 126.965 13.008 L 123.625 13.008 L 123.625 15.996 Z" fill="white"/>
</svg>